<?xml version="1.0" encoding="UTF-8" standalone="no"?>
<svg
   xmlns:ns="http://creativecommons.org/ns#"
   xmlns:dc="http://purl.org/dc/elements/1.1/"
   xmlns:cc="http://web.resource.org/cc/"
   xmlns:rdf="http://www.w3.org/1999/02/22-rdf-syntax-ns#"
   xmlns:svg="http://www.w3.org/2000/svg"
   xmlns="http://www.w3.org/2000/svg"
   xmlns:sodipodi="http://sodipodi.sourceforge.net/DTD/sodipodi-0.dtd"
   xmlns:inkscape="http://www.inkscape.org/namespaces/inkscape"
   viewBox="-4395.636 39.849 249.99999 249.99999"
   version="1.0"
   id="svg722"
   sodipodi:docname="anses_positive.svg"
   width="230"
   height="60"
   inkscape:version="0.45.1"
   sodipodi:version="0.32"
   inkscape:output_extension="org.inkscape.output.svg.inkscape"
   sodipodi:docbase="C:\Users\Fernando\Documents\+backup!\!!!!comiccovers!">
  <metadata
     id="metadata726">
    <rdf:RDF>
      <ns:Work
         rdf:about="">
        <dc:format>image/svg+xml</dc:format>
        <dc:type
           rdf:resource="http://purl.org/dc/dcmitype/StillImage" />
        <dc:title />
      </ns:Work>
      <cc:Work
         rdf:about="">
        <dc:format>image/svg+xml</dc:format>
        <dc:type
           rdf:resource="http://purl.org/dc/dcmitype/StillImage" />
      </cc:Work>
    </rdf:RDF>
  </metadata>
  <sodipodi:namedview
     pagecolor="#ffffff"
     bordercolor="#666666"
     borderopacity="1"
     objecttolerance="10"
     gridtolerance="10"
     guidetolerance="10"
     inkscape:pageopacity="0"
     inkscape:pageshadow="2"
     inkscape:window-width="1366"
     inkscape:window-height="706"
     id="namedview724"
     showgrid="false"
     fit-margin-top="0"
     fit-margin-left="0"
     fit-margin-right="0"
     fit-margin-bottom="0"
     inkscape:zoom="3.7446374"
     inkscape:cx="144.70049"
     inkscape:cy="38.552639"
     inkscape:window-x="-8"
     inkscape:window-y="-8"
     inkscape:window-maximized="1"
     inkscape:current-layer="svg722"
     height="60px"
     width="230px" />
  <defs
     id="defs714">
    <style
       id="style712">
      .cls-1 {
        fill: #fff;
      }
    </style>
  </defs>
  <g
     id="Group_1480"
     data-name="Group 1480"
     transform="matrix(4.2944572,0,0,4.2944572,-4732.1607,63.155319)"
     style="fill:#00a7e4;fill-opacity:1">
    <path
       id="Path_258"
       data-name="Path 258"
       class="cls-1"
       d="M 194.252,19.149 C 189.524,17.649 185.495,16.355 185.495,13.723 C 185.495,13.723 185.334,9.855 191.082,9.855 C 193.46302,9.9373233 195.81006,10.44534 198.012,11.355 L 198.012,11.355 C 204.244,13.826 206.822,8.938 207.575,6.842 C 207.78277,6.313004 207.63173,5.7104445 207.199,5.342 C 206.07356,4.3398767 204.78319,3.5400757 203.385,2.978 C 199.56762,1.3253343 195.45948,0.44897696 191.3,0.4 C 181.469,0.4 174.646,6.309 174.646,14.744 L 174.646,14.9 C 174.646,25.376 189.258,28.814 190.172,28.975 C 190.226,28.975 190.226,28.975 190.279,29.029 C 194.792,30.372 198.713,31.608 198.713,34.294 C 198.713,34.294 198.874,38.594 192.428,38.594 C 189.02604,38.531632 185.68972,37.646774 182.704,36.015 C 177.009,33.759 174.27,38.271 173.41,40.205 C 173.18335,40.722195 173.31306,41.326392 173.732,41.705 C 174.054,41.974 174.432,42.35 175.021,42.779 C 180.10728,46.147345 186.0579,47.975553 192.158,48.044 C 202.849,48.044 209.51,42.403 209.51,33.27 L 209.51,33.109 C 209.562,23.769 194.252,19.149 194.252,19.149 L 194.252,19.149 z "
       transform="translate(-80.2,-0.185)"
       inkscape:connector-curvature="0"
       style="fill:#00a7e4;fill-opacity:1" />
    <path
       id="Path_259"
       data-name="Path 259"
       class="cls-1"
       d="M 353.252,19.1 C 348.524,17.6 344.495,16.306 344.495,13.674 C 344.495,13.674 344.334,9.806 350.082,9.806 C 352.46302,9.8883233 354.81006,10.39634 357.012,11.306 L 357.012,11.306 C 363.244,13.777 365.822,8.889 366.574,6.793 C 366.78177,6.264004 366.63073,5.6614445 366.198,5.293 C 365.07256,4.2908767 363.78219,3.4910757 362.384,2.929 C 358.57805,1.235876 354.46536,0.34111693 350.3,0.3 C 340.469,0.3 333.646,6.209 333.646,14.644 L 333.646,14.8 C 333.646,25.276 348.258,28.714 349.172,28.875 C 349.226,28.875 349.226,28.875 349.279,28.929 C 353.792,30.272 357.713,31.508 357.713,34.194 C 357.713,34.194 357.874,38.494 351.428,38.494 C 348.02604,38.431632 344.68972,37.546774 341.704,35.915 C 336.009,33.659 333.27,38.171 332.41,40.105 C 332.18335,40.622195 332.31306,41.226392 332.732,41.605 C 333.054,41.874 333.432,42.25 334.021,42.679 C 339.10728,46.047345 345.0579,47.875553 351.158,47.944 C 361.849,47.944 368.51,42.303 368.51,33.17 L 368.51,33.009 C 368.509,23.723 353.252,19.1 353.252,19.1 z "
       transform="translate(-153.782,-0.139)"
       inkscape:connector-curvature="0"
       style="fill:#00a7e4;fill-opacity:1" />
    <path
       id="Path_260"
       data-name="Path 260"
       class="cls-1"
       d="M 113.52,0 C 109.65739,-0.044380767 105.90535,1.2890232 102.937,3.761 C 102.57483,4.0206966 102.23347,4.3082346 101.916,4.621 C 101.59291,4.9024576 101.16837,5.0388264 100.74181,4.9981743 C 100.31525,4.9575223 99.924115,4.7434195 99.66,4.406 C 99.445,4.084 99.23,3.815 99.015,3.546 C 96.866,0.322 92.3,0.215 90.043,0.376 C 89.286575,0.43776769 88.703193,1.068064 88.7,1.827 L 88.754,45.879 C 88.753072,46.619549 89.307442,47.243162 90.043,47.329 C 93.051,47.544 100.25,47.329 100.25,39.7 L 100.25,21.113 C 100.25,14.774 103.903,10.691 109.598,10.691 C 115.293,10.691 118.462,14.344 118.462,20.952 L 118.462,45.879 C 118.46571,46.637551 119.04896,47.267266 119.805,47.329 C 122.813,47.544 130.012,47.168 130.012,39.7 L 130.012,17.836 C 130.066,6.823 123.727,0 113.52,0 z "
       transform="translate(-41.049,0)"
       inkscape:connector-curvature="0"
       style="fill:#00a7e4;fill-opacity:1" />
    <path
       id="Path_261"
       data-name="Path 261"
       class="cls-1"
       d="M 284.81,28.311 C 286.2896,28.320063 287.71045,27.732585 288.75162,26.681259 C 289.79278,25.629933 290.36643,24.203446 290.343,22.724 C 290.343,11.711 282.607,0 268.317,0 C 255.424,0 245.7,10.315 245.7,23.96 L 245.7,24.175 C 245.7,38.035 255.692,48.081 269.445,48.081 C 274.51892,48.201294 279.50122,46.715985 283.681,43.837 C 284.82686,42.990564 285.85636,41.997037 286.743,40.882 C 287.1078,40.393035 287.12935,39.728575 286.797,39.217 C 285.615,37.39 282.338,33.522 277.718,36.101 C 275.25537,37.543701 272.45988,38.321147 269.606,38.357 C 263.321,38.357 258.754,34.543 257.519,28.365 L 284.81,28.365 L 284.81,28.311 z M 257.41,20.199 L 257.41,20.092 L 257.41,20.092 C 258.538,13.807 262.728,9.777 268.21,9.777 C 274.173,9.777 277.289,13.86 278.471,18.377 C 278.57201,18.805297 278.47193,19.256275 278.19922,19.601635 C 277.92652,19.946995 277.51105,20.148933 277.071,20.15 L 257.41,20.199 z "
       transform="translate(-113.705,0)"
       inkscape:connector-curvature="0"
       style="fill:#00a7e4;fill-opacity:1" />
    <path
       id="Path_262"
       data-name="Path 262"
       class="cls-1"
       d="M 36.209,5.811 C 32.932,2.427 27.721,0.6 21.113,0.6 C 16.631014,0.56107992 12.176697,1.3056094 7.951,2.8 C 6.4577881,3.3707014 5.0340418,4.1087414 3.707,5 C 3.1564446,5.3577279 2.9141917,6.0402169 3.116,6.665 C 3.868,8.865 6.232,13.649 12.84,11.765 L 12.84,11.765 C 15.098459,11.150546 17.429462,10.843445 19.77,10.852 C 24.121,10.852 29.279,12.252 29.923,18.481 C 29.923,18.481 25.034,18.374 19.984,18.481 C 8.166,18.758 0,24.13 0,33.585 L 0,33.746 C 0,43.685 8.434,48.246 16.278,48.246 C 23.154,48.246 27.184,45.506 29.01,43.787 C 29.311097,43.512059 29.717855,43.383416 30.12229,43.435223 C 30.526725,43.487029 30.887925,43.714043 31.11,44.056 C 33.366,47.279 37.557,47.602 39.71,47.548 C 40.494928,47.529436 41.11898,46.883096 41.11,46.098 L 41.164,20.098 C 41.151,13.869 39.486,9.088 36.209,5.811 z M 19.125,39.441 C 14.344,39.441 11.225,37.077 11.225,33.37 L 11.225,33.209 C 11.225,29.287 14.771,26.762 20.519,26.494 C 24.119,26.333 30.135,26.44 30.135,26.44 L 30.189,30.577 C 30.192,35.68 25.518,39.441 19.125,39.441 z "
       transform="translate(0,-0.278)"
       inkscape:connector-curvature="0"
       style="fill:#00a7e4;fill-opacity:1" />
  </g>
</svg>
